<?xml version="1.0" encoding="utf-8"?>
<svg version="1.1" id="Layer_1" xmlns="http://www.w3.org/2000/svg" xmlns:xlink="http://www.w3.org/1999/xlink" x="0px" y="0px"
	 viewBox="-38 0 212 160"  xml:space="preserve">
<style type="text/css">
	.st0{fill-rule:evenodd;clip-rule:evenodd;fill:#223843;}
	.st1{fill:#223843;}
	.st2{fill:#223843;}
</style>
<path class="st0" d="M80,95c18.2,0,33-14.8,33-33c0-18.2-14.8-33-33-33c-18.2,0-33,14.8-33,33c0,5.7,1.4,11.1,4,15.7l22.4-22.9
	L68,49.4h25v25l-5.8-5.8L64.9,91.4C69.4,93.7,74.6,95,80,95z"/>
<path class="st1" d="M17.2,44.5l22.9-15.4c0.3-0.2,0.7,0,0.7,0.4V88c0,0.2-0.1,0.4-0.2,0.5l-18.5,18.5c-0.3,0.3-0.8,0.1-0.8-0.3v-57
	c0-0.2-0.1-0.4-0.2-0.5l-3.9-3.9C16.9,45.1,17,44.7,17.2,44.5z"/>
<path class="st2" d="M74.8,101.5v28h-9.3v-3c-1,1.1-2.3,2-3.7,2.6c-1.4,0.6-3,0.9-4.6,0.9c-3.6,0-6.5-1.1-8.7-3.2
	c-2.1-2.1-3.2-5.3-3.2-9.6v-5.8c0,0,0-0.1,0-0.1l9.4-9.4c0.1-0.1,0.3,0,0.3,0.1v13.6c0,2.1,0.4,3.6,1.2,4.6c0.8,1,1.9,1.4,3.5,1.4
	c1.5,0,2.8-0.5,3.8-1.6c1-1.1,1.5-2.8,1.5-5v-13.5H74.8z"/>
<path class="st2" d="M97.6,101c2.5,0,4.8,0.6,6.9,1.8c2.1,1.2,3.7,2.9,4.9,5.1c1.2,2.2,1.9,4.7,1.9,7.6c0,2.9-0.6,5.4-1.9,7.6
	c-1.2,2.2-2.9,3.9-4.9,5.1c-2.1,1.2-4.4,1.8-6.9,1.8c-3.3,0-5.9-1-7.8-2.9v10.7H80v-36.2h9.3v2.8C91.2,102.1,93.9,101,97.6,101z
	 M95.5,122.1c1.7,0,3.1-0.6,4.2-1.8c1.1-1.2,1.6-2.8,1.6-4.9c0-2.1-0.6-3.7-1.6-4.9c-1.1-1.2-2.5-1.8-4.2-1.8
	c-1.7,0-3.1,0.6-4.2,1.8c-1.1,1.2-1.6,2.8-1.6,4.9c0,2.1,0.6,3.7,1.6,4.9C92.4,121.5,93.8,122.1,95.5,122.1z"/>
</svg>
