<svg xmlns="http://www.w3.org/2000/svg" viewBox="0 0 71.5 71.5"><defs><style>.\33 473e0b1-4861-44c1-abd8-e905af9a70f8{fill:#223843;}.\38 a227992-2fdb-4fae-94cc-f2530c7cd6ce{fill:#68abcc;}</style></defs><title>Asset 68</title><g id="6170f65c-189e-452d-a0c7-f3b6ae8fa7b5" data-name="Layer 2"><g id="94fca083-b306-4e16-9ef6-26069c6d00eb" data-name="Layer 1"><path class="3473e0b1-4861-44c1-abd8-e905af9a70f8" d="M33,22a54.69,54.69,0,0,1-4.94,5.41c-2.92,2.95-.58,6.4,3.56,6.69,3.5.26,7.2,1.17,12.88,1.88,2,.25-6.17,3.94-7.19,3.62-10.83-3.31-20.21,3-34.47,7.63a.85.85,0,0,0-.55,1.1,35.75,35.75,0,0,0,67.17-.69.85.85,0,0,0-.55-1.08,55,55,0,0,1-30.66-24A2.82,2.82,0,0,0,36,21.26C34.46,21.09,33.44,21.44,33,22Z"/><path class="8a227992-2fdb-4fae-94cc-f2530c7cd6ce" d="M34.93,13l0,0c.35-1.14,4.2-1.79,4.76-.86a.26.26,0,0,1,.11.29C42.88,26.7,54.5,38.35,70.51,44.09a35.75,35.75,0,1,0-69.6-.32C15.56,36.2,27.29,25.7,34.93,13Z"/></g></g></svg>