<svg xmlns="http://www.w3.org/2000/svg" viewBox="0 0 71.5 71.5"><defs><style>.c0cf0c7f-62d8-4d5f-a168-8ca9953ec589{fill:#fff;}</style></defs><title>Asset 69</title><g id="f34ea232-2125-42a8-8517-1b8328aa6788" data-name="Layer 2"><g id="66474de8-162d-4cac-937e-38425f395257" data-name="Layer 1"><path class="c0cf0c7f-62d8-4d5f-a168-8ca9953ec589" d="M33,22a54.69,54.69,0,0,1-4.94,5.41c-2.92,2.95-.58,6.4,3.56,6.69,3.5.26,7.2,1.17,12.88,1.88,2,.25-6.17,3.94-7.19,3.62-10.83-3.31-20.21,3-34.47,7.63a.85.85,0,0,0-.55,1.1,35.75,35.75,0,0,0,67.17-.69.85.85,0,0,0-.55-1.08,55,55,0,0,1-30.66-24A2.82,2.82,0,0,0,36,21.26C34.46,21.09,33.44,21.44,33,22Z"/><path class="c0cf0c7f-62d8-4d5f-a168-8ca9953ec589" d="M34.93,13l0,0c.35-1.14,4.2-1.79,4.76-.86a.26.26,0,0,1,.11.29C42.88,26.7,54.5,38.35,70.51,44.09a35.75,35.75,0,1,0-69.6-.32C15.56,36.2,27.29,25.7,34.93,13Z"/></g></g></svg>