<svg xmlns="http://www.w3.org/2000/svg" viewBox="0 0 214.67 71.5"><defs><style>.\37 bbc2bdb-59c8-4b1b-bcfe-cc31257ffcf0{fill:#223843;}.f94f5bce-63eb-4230-b1bd-821b94e69f53{fill:#68abcc;}</style></defs><title>Asset 67</title><g id="4dc09bac-9355-4b5c-8ae4-ae4d4e976f79" data-name="Layer 2"><g id="5f04a924-0fd0-48dc-a9d1-a30e8ae33ae3" data-name="Layer 1"><path class="7bbc2bdb-59c8-4b1b-bcfe-cc31257ffcf0" d="M96.18,30.52a7.62,7.62,0,0,1-1.52.95,7.85,7.85,0,0,1-1.81.6,10.7,10.7,0,0,1-2.21.21,8.64,8.64,0,0,1-3.43-.68,8.39,8.39,0,0,1-2.74-1.83A8.31,8.31,0,0,1,82.67,27,8.88,8.88,0,0,1,82,23.64v-.05a8.85,8.85,0,0,1,.65-3.38,8.62,8.62,0,0,1,1.8-2.75,8.35,8.35,0,0,1,2.76-1.88,9.09,9.09,0,0,1,3.55-.68,11,11,0,0,1,2.15.19,8.46,8.46,0,0,1,1.76.53,7.5,7.5,0,0,1,1.47.82,10.52,10.52,0,0,1,1.25,1L95.05,20.2a8.92,8.92,0,0,0-2-1.39,5.17,5.17,0,0,0-2.29-.5,4.71,4.71,0,0,0-2,.4,4.84,4.84,0,0,0-1.55,1.13,5.31,5.31,0,0,0-1,1.67,5.67,5.67,0,0,0-.36,2v.05a5.8,5.8,0,0,0,.36,2,5.41,5.41,0,0,0,1,1.68,4.72,4.72,0,0,0,1.54,1.14,4.62,4.62,0,0,0,2,.42,5.13,5.13,0,0,0,2.43-.53,9,9,0,0,0,2-1.44l2.36,2.38A13,13,0,0,1,96.18,30.52Z"/><path class="7bbc2bdb-59c8-4b1b-bcfe-cc31257ffcf0" d="M113,32l-1.53-3.77h-7.11L102.81,32H99l7.2-16.92h3.41L116.85,32Zm-5.09-12.48q-1.11,2.72-2.23,5.45h4.47C109.38,23.14,108.64,21.32,107.89,19.51Z"/><path class="7bbc2bdb-59c8-4b1b-bcfe-cc31257ffcf0" d="M131.13,29.24a4.5,4.5,0,0,1-1.26,1.63,5.77,5.77,0,0,1-1.94,1,8.46,8.46,0,0,1-2.49.35,11.38,11.38,0,0,1-3.77-.66,10,10,0,0,1-3.36-2l2.18-2.62a10.86,10.86,0,0,0,2.37,1.49,6.29,6.29,0,0,0,2.65.55,3.25,3.25,0,0,0,1.79-.42,1.31,1.31,0,0,0,.63-1.16v-.05a1.39,1.39,0,0,0-.13-.63,1.36,1.36,0,0,0-.5-.52,5.44,5.44,0,0,0-1-.48,16.08,16.08,0,0,0-1.72-.5,20.58,20.58,0,0,1-2.31-.7,6.67,6.67,0,0,1-1.76-.95,3.72,3.72,0,0,1-1.11-1.4,4.81,4.81,0,0,1-.4-2.09v0a4.79,4.79,0,0,1,.43-2.07,4.59,4.59,0,0,1,1.2-1.6,5.37,5.37,0,0,1,1.85-1,7.46,7.46,0,0,1,2.37-.36,9.69,9.69,0,0,1,6.24,2.13l-1.92,2.79a11.8,11.8,0,0,0-2.2-1.21,5.58,5.58,0,0,0-2.16-.45,2.61,2.61,0,0,0-1.62.42,1.28,1.28,0,0,0-.54,1.05v0a1.55,1.55,0,0,0,.15.71,1.42,1.42,0,0,0,.57.54,5.43,5.43,0,0,0,1.12.46c.47.14,1.07.31,1.79.5a16.28,16.28,0,0,1,2.27.76,6.16,6.16,0,0,1,1.69,1,3.74,3.74,0,0,1,1,1.38,4.69,4.69,0,0,1,.35,1.89V27A5.24,5.24,0,0,1,131.13,29.24Z"/><path class="7bbc2bdb-59c8-4b1b-bcfe-cc31257ffcf0" d="M148.21,30.52a7.62,7.62,0,0,1-1.52.95,7.85,7.85,0,0,1-1.81.6,10.64,10.64,0,0,1-2.21.21,8.64,8.64,0,0,1-3.43-.68,8.39,8.39,0,0,1-2.74-1.83A8.31,8.31,0,0,1,134.7,27a8.88,8.88,0,0,1-.65-3.38v-.05a8.85,8.85,0,0,1,.65-3.38,8.62,8.62,0,0,1,1.8-2.75,8.35,8.35,0,0,1,2.76-1.88,9.09,9.09,0,0,1,3.55-.68,11,11,0,0,1,2.15.19,8.75,8.75,0,0,1,1.77.53,7.72,7.72,0,0,1,1.46.82,10.52,10.52,0,0,1,1.25,1l-2.36,2.71a8.92,8.92,0,0,0-2-1.39,5.17,5.17,0,0,0-2.29-.5,4.56,4.56,0,0,0-3.5,1.53,5.15,5.15,0,0,0-1,1.67,5.67,5.67,0,0,0-.36,2v.05a5.8,5.8,0,0,0,.36,2,5.41,5.41,0,0,0,1,1.68,4.72,4.72,0,0,0,1.54,1.14,4.62,4.62,0,0,0,2,.42,5.21,5.21,0,0,0,2.44-.53,9.22,9.22,0,0,0,2-1.44l2.36,2.38A13,13,0,0,1,148.21,30.52Z"/><path class="7bbc2bdb-59c8-4b1b-bcfe-cc31257ffcf0" d="M165,32l-1.53-3.77h-7.11L154.84,32h-3.77l7.2-16.92h3.41L168.88,32Zm-5.09-12.48q-1.11,2.72-2.23,5.45h4.47C161.41,23.14,160.67,21.32,159.92,19.51Z"/><path class="7bbc2bdb-59c8-4b1b-bcfe-cc31257ffcf0" d="M186.3,26.9a7.7,7.7,0,0,1-1.84,2.66,8.62,8.62,0,0,1-2.83,1.78A9.78,9.78,0,0,1,178,32h-6.55V15.19H178a10,10,0,0,1,3.61.63,8.44,8.44,0,0,1,2.83,1.77,7.76,7.76,0,0,1,1.84,2.65,8.41,8.41,0,0,1,.65,3.3v.05A8.46,8.46,0,0,1,186.3,26.9Zm-3.22-3.31a5.4,5.4,0,0,0-.37-2,4.78,4.78,0,0,0-1-1.61,4.39,4.39,0,0,0-1.6-1,5.47,5.47,0,0,0-2.06-.38h-2.86V28.65H178a5.68,5.68,0,0,0,2.06-.36,4.37,4.37,0,0,0,1.6-1,5,5,0,0,0,1-1.58,5.33,5.33,0,0,0,.37-2Z"/><path class="7bbc2bdb-59c8-4b1b-bcfe-cc31257ffcf0" d="M190.41,32V15.19h3.69V32Z"/><path class="7bbc2bdb-59c8-4b1b-bcfe-cc31257ffcf0" d="M210.8,32l-1.53-3.77h-7.11L200.63,32h-3.77l7.2-16.92h3.41L214.67,32Zm-5.08-12.48L203.49,25H208Q206.83,22.23,205.72,19.51Z"/><path class="f94f5bce-63eb-4230-b1bd-821b94e69f53" d="M97.6,50.9a7.84,7.84,0,0,1-1.84,2.66,8.62,8.62,0,0,1-2.83,1.78,9.82,9.82,0,0,1-3.61.65H82.77V39.19h6.55a10,10,0,0,1,3.61.63,8.44,8.44,0,0,1,2.83,1.77,7.8,7.8,0,0,1,1.84,2.65,8.37,8.37,0,0,1,.65,3.3v.05A8.5,8.5,0,0,1,97.6,50.9Zm-3.22-3.31a5.4,5.4,0,0,0-.37-2,4.78,4.78,0,0,0-1-1.61,4.39,4.39,0,0,0-1.6-1,5.47,5.47,0,0,0-2.06-.38H86.46V52.65h2.86a5.68,5.68,0,0,0,2.06-.36,4.37,4.37,0,0,0,1.6-1,5,5,0,0,0,1-1.58,5.37,5.37,0,0,0,.37-2Z"/><path class="f94f5bce-63eb-4230-b1bd-821b94e69f53" d="M101.7,56V39.19h3.7V56Z"/><path class="f94f5bce-63eb-4230-b1bd-821b94e69f53" d="M121.78,55.5a10.32,10.32,0,0,1-4.09.78,9.6,9.6,0,0,1-3.59-.65,8.28,8.28,0,0,1-2.79-1.8,8.19,8.19,0,0,1-1.81-2.74,9.06,9.06,0,0,1-.65-3.45v0a8.56,8.56,0,0,1,2.5-6.13,8.54,8.54,0,0,1,2.78-1.88,9.07,9.07,0,0,1,3.53-.68,11.69,11.69,0,0,1,2,.16,9.61,9.61,0,0,1,1.72.44,7.88,7.88,0,0,1,1.49.72,11.18,11.18,0,0,1,1.34,1c-.77.94-1.55,1.88-2.33,2.81a10,10,0,0,0-1-.72,6.75,6.75,0,0,0-1-.53,6.35,6.35,0,0,0-1.12-.33,6.74,6.74,0,0,0-1.32-.12,4.28,4.28,0,0,0-1.88.42,4.91,4.91,0,0,0-1.54,1.13,5.22,5.22,0,0,0-1,1.66,5.46,5.46,0,0,0-.37,2v.05a5.88,5.88,0,0,0,.37,2.13,5,5,0,0,0,1.06,1.69,4.59,4.59,0,0,0,1.6,1.12,5.08,5.08,0,0,0,2.06.4,5.82,5.82,0,0,0,3.48-1V49.51h-3.72V46.32h7.29v7.29A12.14,12.14,0,0,1,121.78,55.5Z"/><path class="f94f5bce-63eb-4230-b1bd-821b94e69f53" d="M128.58,56V39.19h3.7V56Z"/><path class="f94f5bce-63eb-4230-b1bd-821b94e69f53" d="M144.09,42.6V56h-3.7V42.6h-5.11V39.19H149.2V42.6Z"/><path class="f94f5bce-63eb-4230-b1bd-821b94e69f53" d="M164.53,56,163,52.22h-7.11L154.36,56h-3.77l7.2-16.92h3.41L168.4,56Zm-5.08-12.48c-.75,1.81-1.49,3.63-2.24,5.45h4.47Q160.56,46.23,159.45,43.51Z"/><path class="f94f5bce-63eb-4230-b1bd-821b94e69f53" d="M171,56V39.19h3.7V52.65h8.37V56Z"/><path class="7bbc2bdb-59c8-4b1b-bcfe-cc31257ffcf0" d="M33,22a54.69,54.69,0,0,1-4.94,5.41c-2.92,2.95-.58,6.4,3.56,6.69,3.5.26,7.2,1.17,12.88,1.88,2,.25-6.17,3.94-7.19,3.62-10.83-3.31-20.21,3-34.47,7.63a.85.85,0,0,0-.55,1.1,35.75,35.75,0,0,0,67.17-.69.85.85,0,0,0-.55-1.08,55,55,0,0,1-30.66-24A2.82,2.82,0,0,0,36,21.26C34.46,21.09,33.44,21.44,33,22Z"/><path class="f94f5bce-63eb-4230-b1bd-821b94e69f53" d="M34.93,13l0,0c.35-1.14,4.2-1.79,4.76-.86a.26.26,0,0,1,.11.29C42.88,26.7,54.5,38.35,70.51,44.09a35.75,35.75,0,1,0-69.6-.32C15.56,36.2,27.29,25.7,34.93,13Z"/></g></g></svg>