<svg xmlns="http://www.w3.org/2000/svg" viewBox="0 0 215.21 71.5"><defs><style>.\35 a6b3baf-45d2-426f-879f-0266c0f92ce3{fill:#fff;}</style></defs><title>Asset 70</title><g id="390190be-3654-4bbf-bb9b-4c48e6acc8ca" data-name="Layer 2"><g id="7623466d-c4fe-450f-add7-8d37d6104137" data-name="Layer 1"><path class="5a6b3baf-45d2-426f-879f-0266c0f92ce3" d="M96.72,31.43a8.11,8.11,0,0,1-1.52,1,8.36,8.36,0,0,1-1.81.6,11.41,11.41,0,0,1-2.21.2,8.64,8.64,0,0,1-3.43-.67A8.42,8.42,0,0,1,85,30.67a8.26,8.26,0,0,1-1.8-2.74,8.93,8.93,0,0,1-.65-3.39v-.05a8.8,8.8,0,0,1,.65-3.37A8.56,8.56,0,0,1,85,18.36a8.47,8.47,0,0,1,2.76-1.87,8.92,8.92,0,0,1,3.55-.68,11,11,0,0,1,2.15.19,8.16,8.16,0,0,1,1.77.53,7.68,7.68,0,0,1,1.46.81A9.73,9.73,0,0,1,98,18.4l-2.36,2.71a8.6,8.6,0,0,0-2-1.39,5,5,0,0,0-2.29-.51,4.75,4.75,0,0,0-2,.41,4.7,4.7,0,0,0-1.55,1.13,5.31,5.31,0,0,0-1,1.67,5.63,5.63,0,0,0-.36,2v0a5.76,5.76,0,0,0,.36,2,5.41,5.41,0,0,0,1,1.68,4.64,4.64,0,0,0,3.52,1.56,5.21,5.21,0,0,0,2.44-.52,10,10,0,0,0,2-1.44l2.36,2.37A12,12,0,0,1,96.72,31.43Z"/><path class="5a6b3baf-45d2-426f-879f-0266c0f92ce3" d="M113.52,32.89,112,29.13h-7.11l-1.53,3.76H99.58L106.78,16h3.41l7.2,16.92Zm-5.09-12.48q-1.11,2.73-2.23,5.45h4.47C109.92,24.05,109.18,22.23,108.43,20.41Z"/><path class="5a6b3baf-45d2-426f-879f-0266c0f92ce3" d="M131.67,30.15a4.59,4.59,0,0,1-1.26,1.63,6,6,0,0,1-1.94,1,8.47,8.47,0,0,1-2.49.34,11.13,11.13,0,0,1-3.77-.66,10,10,0,0,1-3.36-2L121,27.83a10.94,10.94,0,0,0,2.36,1.49,6.29,6.29,0,0,0,2.65.55,3.25,3.25,0,0,0,1.79-.42,1.33,1.33,0,0,0,.63-1.16v-.05a1.47,1.47,0,0,0-.13-.64,1.34,1.34,0,0,0-.5-.51,4.89,4.89,0,0,0-1-.48c-.44-.16-1-.33-1.72-.51a23,23,0,0,1-2.31-.69,7,7,0,0,1-1.76-.95,3.83,3.83,0,0,1-1.11-1.41,4.76,4.76,0,0,1-.4-2.08v0a4.84,4.84,0,0,1,.43-2.08,4.58,4.58,0,0,1,1.2-1.59,5.49,5.49,0,0,1,1.85-1,8.07,8.07,0,0,1,2.37-.36,10,10,0,0,1,3.4.56A9.56,9.56,0,0,1,131.59,18l-1.92,2.78a12.41,12.41,0,0,0-2.2-1.21,5.75,5.75,0,0,0-2.16-.44,2.61,2.61,0,0,0-1.62.42,1.28,1.28,0,0,0-.54,1v.05a1.58,1.58,0,0,0,.15.71,1.49,1.49,0,0,0,.57.54,5.17,5.17,0,0,0,1.12.45c.47.15,1.07.32,1.79.51a16.32,16.32,0,0,1,2.27.75,6.7,6.7,0,0,1,1.69,1,3.74,3.74,0,0,1,1,1.38,4.57,4.57,0,0,1,.35,1.9v.05A5.24,5.24,0,0,1,131.67,30.15Z"/><path class="5a6b3baf-45d2-426f-879f-0266c0f92ce3" d="M148.75,31.43a8.11,8.11,0,0,1-1.52,1,8.36,8.36,0,0,1-1.81.6,11.41,11.41,0,0,1-2.21.2,8.64,8.64,0,0,1-3.43-.67A8.42,8.42,0,0,1,137,30.67a8.26,8.26,0,0,1-1.8-2.74,8.93,8.93,0,0,1-.65-3.39v-.05a8.8,8.8,0,0,1,.65-3.37,8.56,8.56,0,0,1,1.8-2.76,8.47,8.47,0,0,1,2.76-1.87,8.92,8.92,0,0,1,3.55-.68,11,11,0,0,1,2.15.19,8.16,8.16,0,0,1,1.77.53,7.68,7.68,0,0,1,1.46.81A9.09,9.09,0,0,1,150,18.4c-.79.9-1.57,1.81-2.35,2.71a8.87,8.87,0,0,0-2-1.39,5,5,0,0,0-2.29-.51,4.75,4.75,0,0,0-2,.41,4.56,4.56,0,0,0-1.54,1.13,5.33,5.33,0,0,0-1,1.67,5.63,5.63,0,0,0-.36,2v0a5.76,5.76,0,0,0,.36,2,5.41,5.41,0,0,0,1,1.68,4.64,4.64,0,0,0,3.52,1.56,5.21,5.21,0,0,0,2.44-.52,10.31,10.31,0,0,0,2-1.44l2.35,2.37A11.24,11.24,0,0,1,148.75,31.43Z"/><path class="5a6b3baf-45d2-426f-879f-0266c0f92ce3" d="M165.55,32.89,164,29.13h-7.11l-1.53,3.76h-3.77L158.81,16h3.41l7.2,16.92Zm-5.08-12.48c-.75,1.82-1.49,3.64-2.24,5.45h4.47Q161.57,23.15,160.47,20.41Z"/><path class="5a6b3baf-45d2-426f-879f-0266c0f92ce3" d="M186.84,27.81A7.81,7.81,0,0,1,185,30.47a9,9,0,0,1-2.84,1.78,9.78,9.78,0,0,1-3.61.64H172V16.09h6.55a10,10,0,0,1,3.61.64A8.56,8.56,0,0,1,185,18.49a7.91,7.91,0,0,1,1.83,2.66,8.34,8.34,0,0,1,.65,3.3v0A8.51,8.51,0,0,1,186.84,27.81Zm-3.21-3.32a5.48,5.48,0,0,0-.38-2,4.62,4.62,0,0,0-2.62-2.65,5.56,5.56,0,0,0-2.07-.37h-2.85V29.56h2.85a5.77,5.77,0,0,0,2.07-.36,4.55,4.55,0,0,0,1.59-1,4.74,4.74,0,0,0,1-1.59,5.33,5.33,0,0,0,.38-2Z"/><path class="5a6b3baf-45d2-426f-879f-0266c0f92ce3" d="M191,32.89V16.09h3.69v16.8Z"/><path class="5a6b3baf-45d2-426f-879f-0266c0f92ce3" d="M211.35,32.89l-1.54-3.76h-7.1c-.52,1.25-1,2.51-1.54,3.76H197.4L204.6,16H208l7.2,16.92Zm-5.09-12.48q-1.12,2.73-2.23,5.45h4.46C207.75,24.05,207,22.23,206.26,20.41Z"/><path class="5a6b3baf-45d2-426f-879f-0266c0f92ce3" d="M98.14,51.81a7.84,7.84,0,0,1-1.84,2.66,8.79,8.79,0,0,1-2.83,1.78,9.82,9.82,0,0,1-3.61.64H83.31V40.09h6.55a10,10,0,0,1,3.61.64,8.42,8.42,0,0,1,2.83,1.76,7.94,7.94,0,0,1,1.84,2.66,8.34,8.34,0,0,1,.65,3.3v0A8.51,8.51,0,0,1,98.14,51.81Zm-3.22-3.32a5.48,5.48,0,0,0-.37-2,4.74,4.74,0,0,0-1-1.6,4.55,4.55,0,0,0-1.6-1.05,5.47,5.47,0,0,0-2.06-.37H87V53.56h2.86a5.68,5.68,0,0,0,2.06-.36,4.37,4.37,0,0,0,1.6-1,4.9,4.9,0,0,0,1-1.59,5.33,5.33,0,0,0,.37-2Z"/><path class="5a6b3baf-45d2-426f-879f-0266c0f92ce3" d="M102.24,56.89V40.09h3.7v16.8Z"/><path class="5a6b3baf-45d2-426f-879f-0266c0f92ce3" d="M122.32,56.4a10.15,10.15,0,0,1-4.09.78,9.6,9.6,0,0,1-3.59-.65,8.14,8.14,0,0,1-2.78-1.8A8,8,0,0,1,110,52a9.1,9.1,0,0,1-.64-3.46v0a8.8,8.8,0,0,1,.65-3.37,9,9,0,0,1,1.84-2.76,8.67,8.67,0,0,1,2.78-1.87,8.89,8.89,0,0,1,3.53-.68,12.71,12.71,0,0,1,2,.15,8.83,8.83,0,0,1,1.72.45,7.6,7.6,0,0,1,1.49.72,10.18,10.18,0,0,1,1.34,1c-.77.94-1.55,1.87-2.33,2.81a8.9,8.9,0,0,0-1-.72,5.92,5.92,0,0,0-1-.53,6.11,6.11,0,0,0-1.12-.34,6.74,6.74,0,0,0-1.32-.12,4.28,4.28,0,0,0-1.88.42,5.1,5.1,0,0,0-1.54,1.14,5.17,5.17,0,0,0-1,1.65,5.55,5.55,0,0,0-.37,2v0a5.87,5.87,0,0,0,.37,2.12,4.94,4.94,0,0,0,1.06,1.7,4.87,4.87,0,0,0,1.6,1.12,5.25,5.25,0,0,0,2.06.4,5.82,5.82,0,0,0,3.48-1V50.41h-3.72V47.22h7.29v7.3A12.41,12.41,0,0,1,122.32,56.4Z"/><path class="5a6b3baf-45d2-426f-879f-0266c0f92ce3" d="M129.12,56.89V40.09h3.7v16.8Z"/><path class="5a6b3baf-45d2-426f-879f-0266c0f92ce3" d="M144.63,43.5V56.89h-3.7V43.5h-5.11V40.09h13.92V43.5Z"/><path class="5a6b3baf-45d2-426f-879f-0266c0f92ce3" d="M165.07,56.89l-1.53-3.76h-7.11l-1.53,3.76h-3.77L158.33,40h3.41l7.2,16.92ZM160,44.41c-.75,1.82-1.49,3.64-2.24,5.45h4.47Q161.1,47.15,160,44.41Z"/><path class="5a6b3baf-45d2-426f-879f-0266c0f92ce3" d="M171.53,56.89V40.09h3.7V53.56h8.37v3.33Z"/><path class="5a6b3baf-45d2-426f-879f-0266c0f92ce3" d="M33,22a54.69,54.69,0,0,1-4.94,5.41c-2.92,2.95-.58,6.4,3.56,6.69,3.5.26,7.2,1.17,12.88,1.88,2,.25-6.17,3.94-7.19,3.62-10.83-3.31-20.21,3-34.47,7.63a.85.85,0,0,0-.55,1.1,35.75,35.75,0,0,0,67.17-.69.85.85,0,0,0-.55-1.08,55,55,0,0,1-30.66-24A2.82,2.82,0,0,0,36,21.26C34.46,21.09,33.44,21.44,33,22Z"/><path class="5a6b3baf-45d2-426f-879f-0266c0f92ce3" d="M34.93,13l0,0c.35-1.14,4.2-1.79,4.76-.86a.26.26,0,0,1,.11.29C42.88,26.7,54.5,38.35,70.51,44.09a35.75,35.75,0,1,0-69.6-.32C15.56,36.2,27.29,25.7,34.93,13Z"/></g></g></svg>