<?xml version="1.0" encoding="utf-8"?>
<!-- Generator: Adobe Illustrator 25.4.1, SVG Export Plug-In . SVG Version: 6.00 Build 0)  -->
<svg version="1.1" id="Layer_1" xmlns="http://www.w3.org/2000/svg" xmlns:xlink="http://www.w3.org/1999/xlink" x="0px" y="0px"
	 viewBox="0 0 241 51" style="enable-background:new 0 0 241 51;" xml:space="preserve">
<style type="text/css">
	.st0{fill:#223843;}
</style>
<g>
	<path class="st0" d="M58.9,13.5h9.3c4.3,0,7.6,1,10,3.2c2.3,2.1,3.5,5.1,3.5,9s-1.2,6.9-3.5,9c-2.3,2.1-5.7,3.2-10,3.2h-9.3V13.5z
		 M67.9,34.9c6.5,0,9.8-3.1,9.8-9.3c0-6.1-3.3-9.2-9.8-9.2h-5.2v18.5H67.9z"/>
	<path class="st0" d="M105.3,20.6v17.2h-3.7v-2.9c-0.6,1-1.4,1.8-2.5,2.3c-1.1,0.5-2.3,0.8-3.8,0.8c-1.7,0-3.1-0.4-4.4-1.1
		c-1.3-0.7-2.2-1.7-2.9-3.1s-1-2.9-1-4.6c0-1.8,0.4-3.3,1.1-4.7s1.7-2.4,3-3.2c1.3-0.7,2.7-1.1,4.3-1.1c1.5,0,2.7,0.3,3.8,0.8
		c1.1,0.6,1.9,1.3,2.5,2.4v-2.8L105.3,20.6L105.3,20.6z M100.2,33.7c0.9-1.1,1.4-2.6,1.4-4.6s-0.5-3.5-1.4-4.6
		c-0.9-1.1-2.3-1.6-4-1.6c-1.7,0-3,0.6-4,1.7s-1.5,2.6-1.5,4.6c0,1.9,0.5,3.4,1.5,4.5s2.3,1.6,4,1.6C97.9,35.3,99.2,34.8,100.2,33.7
		z"/>
	<path class="st0" d="M117.2,23.2v8.6c0,1.2,0.3,2,0.9,2.5c0.6,0.5,1.3,0.7,2.3,0.7c0.6,0,1.3-0.1,2-0.3v2.8
		c-0.8,0.3-1.7,0.4-2.8,0.4c-1.9,0-3.4-0.5-4.5-1.5s-1.6-2.5-1.6-4.4v-8.9h-3.6v-2.7h3.6v-4.3l3.8-1.2v5.5h5.2v2.7L117.2,23.2
		L117.2,23.2z"/>
	<path class="st0" d="M144.5,20.6v17.2h-3.7v-2.9c-0.6,1-1.4,1.8-2.5,2.3s-2.3,0.8-3.8,0.8c-1.7,0-3.1-0.4-4.4-1.1
		c-1.3-0.7-2.2-1.7-2.9-3.1c-0.7-1.3-1-2.9-1-4.6c0-1.8,0.4-3.3,1.1-4.7c0.7-1.4,1.7-2.4,3-3.2c1.3-0.7,2.7-1.1,4.3-1.1
		c1.5,0,2.7,0.3,3.8,0.8c1.1,0.6,1.9,1.3,2.5,2.4v-2.8L144.5,20.6L144.5,20.6z M139.3,33.7c0.9-1.1,1.4-2.6,1.4-4.6
		c0-2-0.5-3.5-1.4-4.6c-0.9-1.1-2.3-1.6-4-1.6c-1.7,0-3,0.6-4,1.7c-1,1.1-1.5,2.6-1.5,4.6c0,1.9,0.5,3.4,1.5,4.5
		c1,1.1,2.3,1.6,4,1.6C137.1,35.3,138.4,34.8,139.3,33.7z"/>
	<path class="st0" d="M165.8,21.3c1.3,0.7,2.2,1.7,2.9,3.1c0.7,1.3,1,2.9,1,4.7c0,1.8-0.4,3.3-1.1,4.7c-0.7,1.3-1.7,2.4-3,3.2
		c-1.3,0.7-2.7,1.1-4.3,1.1c-1.4,0-2.7-0.3-3.8-0.9c-1.1-0.6-1.9-1.4-2.5-2.4v3h-3.7V12.6h3.7v10.8c0.6-1,1.4-1.8,2.5-2.4
		c1.1-0.6,2.3-0.9,3.8-0.9C163.1,20.2,164.5,20.5,165.8,21.3z M164.5,33.7c0.9-1.1,1.4-2.6,1.4-4.6c0-1.9-0.5-3.4-1.4-4.5
		c-0.9-1.1-2.3-1.6-3.9-1.6c-1.7,0-3.1,0.5-4,1.6c-0.9,1.1-1.4,2.6-1.4,4.6c0,2,0.5,3.5,1.4,4.6c0.9,1.1,2.3,1.6,4,1.6
		C162.2,35.3,163.5,34.8,164.5,33.7z"/>
	<path class="st0" d="M192.3,20.4v17.2h-3.7v-2.9c-0.6,1-1.4,1.8-2.5,2.3s-2.3,0.8-3.8,0.8c-1.7,0-3.1-0.4-4.4-1.1
		c-1.3-0.7-2.2-1.7-2.9-3.1c-0.7-1.3-1-2.9-1-4.6c0-1.8,0.4-3.3,1.1-4.7s1.7-2.4,3-3.2c1.3-0.7,2.7-1.1,4.3-1.1
		c1.5,0,2.7,0.3,3.8,0.8c1.1,0.6,1.9,1.3,2.5,2.4v-2.8L192.3,20.4L192.3,20.4z M187.2,33.5c0.9-1.1,1.4-2.6,1.4-4.6
		s-0.5-3.5-1.4-4.6s-2.3-1.6-4-1.6c-1.7,0-3,0.6-4,1.7s-1.5,2.6-1.5,4.6c0,1.9,0.5,3.4,1.5,4.5s2.3,1.6,4,1.6
		C185,35.1,186.3,34.5,187.2,33.5z"/>
	<path class="st0" d="M216.6,27.1v10.8h-3.8V27.3c0-1.5-0.3-2.6-1-3.3c-0.6-0.7-1.6-1-3.1-1c-1.6,0-2.9,0.4-3.8,1.4
		s-1.5,2.1-1.5,3.6v9.8h-3.7V25.4c0-1.8-0.1-3.4-0.3-4.8h3.5l0.3,3c0.6-1.1,1.5-1.9,2.6-2.5c1.1-0.6,2.4-0.9,3.9-0.9
		C214.3,20.2,216.6,22.5,216.6,27.1L216.6,27.1z"/>
	<path class="st0" d="M240.6,12.6v25.1h-3.7v-2.9c-0.6,1-1.4,1.8-2.5,2.3s-2.3,0.8-3.8,0.8c-1.6,0-3.1-0.4-4.3-1.1s-2.3-1.8-3-3.2
		c-0.7-1.3-1.1-2.9-1.1-4.7c0-1.7,0.3-3.3,1-4.7c0.7-1.3,1.7-2.4,2.9-3.1c1.3-0.7,2.7-1.1,4.4-1.1c1.4,0,2.7,0.3,3.8,0.8
		c1.1,0.6,1.9,1.3,2.5,2.3V12.6L240.6,12.6z M235.5,33.7c0.9-1.1,1.4-2.6,1.4-4.6c0-2-0.5-3.5-1.4-4.6c-0.9-1.1-2.2-1.6-3.9-1.6
		s-3.1,0.5-4,1.6c-1,1.1-1.5,2.6-1.5,4.5c0,2,0.5,3.5,1.5,4.6c1,1.1,2.3,1.7,4,1.7C233.2,35.3,234.5,34.8,235.5,33.7z"/>
	<path class="st0" d="M10.8,39.4l-9.4-14c-1.3-1.9-1.7-4.2-1.3-6.4c0.5-2.2,1.8-4.2,3.6-5.5c1.9-1.3,4.2-1.8,6.4-1.4
		c2.3,0.5,4.2,1.7,5.5,3.6l4.8,7.1l7.4,10.9c0.7,1.1,1.9,1.9,3.3,2.2c1.3,0.3,2.7,0,3.9-0.9c1.2-0.9,2-2.1,2.3-3.4
		c0.3-1.4,0-2.8-0.7-3.9L27,13.4l2.7-1.8l9.7,14.4c2.6,3.9,1.6,9.2-2.4,12c-1.5,1-3.2,1.5-4.9,1.5c-0.5,0-0.9-0.1-1.4-0.1l-0.2,0
		c-2.3-0.5-4.2-1.7-5.5-3.6l-4.8-7.1l-7.4-10.9c-0.7-1.1-1.9-1.9-3.3-2.2c-1.4-0.3-2.8,0-3.9,0.8c-2.4,1.7-3.1,5-1.5,7.3l1.1,1.6
		l2.1,3.1l6.2,9.2L10.8,39.4z"/>
</g>
<path class="st0" d="M16.7,51c3.2,0,5.9-2.6,5.9-5.9c0-3.2-2.6-5.9-5.9-5.9s-5.9,2.6-5.9,5.9C10.8,48.4,13.5,51,16.7,51z"/>
<path class="st0" d="M23.8,11.8c3.2,0,5.9-2.6,5.9-5.9C29.7,2.6,27,0,23.8,0c-3.2,0-5.9,2.6-5.9,5.9C17.9,9.1,20.5,11.8,23.8,11.8z"
	/>
</svg>
