<svg version="1.1" xmlns="http://www.w3.org/2000/svg" xmlns:xlink="http://www.w3.org/1999/xlink" x="0px" y="0px" viewBox="0 0 165 44" enable-background="new 0 0 165 44" xml:space="preserve">
    <g>
      <path fill="#223843" d="M44.9,11.7h7.8c1.6,0,3.1,0.2,4.5,0.6c1.4,0.4,2.5,1,3.5,1.9c1,0.8,1.7,1.9,2.3,3.2
        c0.5,1.3,0.8,2.8,0.8,4.6c0,1.7-0.3,3.2-0.8,4.4c-0.6,1.3-1.3,2.3-2.3,3.1c-1,0.8-2.2,1.5-3.5,1.9c-1.4,0.4-2.8,0.6-4.4,0.6h-7.8
        V11.7z M52.3,28.7c2.4,0,4.2-0.6,5.5-1.7c1.3-1.1,1.9-2.8,1.9-4.9c0-2.1-0.6-3.8-1.7-5.1c-1.2-1.2-3-1.9-5.6-1.9h-3.5v13.5H52.3z"></path>
      <path fill="#223843" d="M65.3,24.9c0-1,0.2-2,0.6-2.9c0.4-0.9,0.9-1.7,1.6-2.4c0.7-0.7,1.5-1.2,2.5-1.6c1-0.4,2-0.6,3.2-0.6
        c1.2,0,2.2,0.2,3.2,0.6c1,0.4,1.8,1,2.5,1.6c0.7,0.7,1.2,1.5,1.6,2.4c0.4,0.9,0.6,1.9,0.6,2.9c0,1-0.2,2-0.6,2.9
        c-0.4,0.9-0.9,1.7-1.6,2.4c-0.7,0.7-1.5,1.3-2.5,1.7c-1,0.4-2,0.6-3.2,0.6c-1.2,0-2.2-0.2-3.2-0.6c-1-0.4-1.8-1-2.5-1.7
        c-0.7-0.7-1.2-1.5-1.6-2.4C65.5,27,65.3,26,65.3,24.9z M73.2,29.5c0.7,0,1.3-0.1,1.8-0.4c0.5-0.3,1-0.6,1.3-1.1
        c0.3-0.4,0.6-0.9,0.8-1.5c0.2-0.5,0.3-1.1,0.3-1.6c0-0.5-0.1-1-0.3-1.6c-0.2-0.5-0.4-1-0.8-1.5c-0.3-0.4-0.8-0.8-1.3-1.1
        c-0.5-0.3-1.1-0.4-1.8-0.4c-0.7,0-1.3,0.1-1.8,0.4c-0.5,0.3-1,0.6-1.3,1.1c-0.3,0.4-0.6,0.9-0.8,1.5c-0.2,0.5-0.3,1.1-0.3,1.6
        c0,0.5,0.1,1.1,0.3,1.6c0.2,0.5,0.4,1,0.8,1.5c0.3,0.4,0.8,0.8,1.3,1.1C71.8,29.3,72.5,29.5,73.2,29.5z"></path>
      <path fill="#223843" d="M82.9,17.8h3.5l0.1,1.6c0.2-0.2,0.4-0.4,0.6-0.7c0.2-0.2,0.5-0.4,0.9-0.6c0.3-0.2,0.7-0.3,1.2-0.5
        c0.4-0.1,1-0.2,1.6-0.2c1.9,0,3.4,0.7,4.4,2.1c0.8-0.8,1.5-1.3,2.3-1.6c0.8-0.3,1.7-0.5,2.7-0.5c1.9,0,3.3,0.5,4.3,1.6
        c1,1.1,1.5,2.5,1.5,4.3v8.7h-3.7v-8.7c0-0.9-0.2-1.6-0.7-2.1c-0.5-0.5-1.1-0.7-1.9-0.7c-0.5,0-1,0.1-1.4,0.3
        c-0.4,0.2-0.8,0.5-1.1,0.8c-0.3,0.3-0.5,0.7-0.7,1.2c-0.2,0.5-0.2,1-0.2,1.5v7.8h-3.7v-8.7c0-0.9-0.2-1.6-0.7-2.1
        c-0.5-0.5-1.1-0.7-1.9-0.7c-0.5,0-1,0.1-1.4,0.3c-0.4,0.2-0.8,0.5-1.1,0.8c-0.3,0.3-0.5,0.7-0.7,1.2c-0.2,0.5-0.2,1-0.2,1.5v7.8
        h-3.7V17.8z"></path>
      <path fill="#223843" d="M117.4,30.8c-0.4,0.5-1,0.9-1.8,1.3c-0.8,0.4-1.7,0.6-2.7,0.6c-0.6,0-1.2-0.1-1.8-0.3
        c-0.6-0.2-1.1-0.5-1.6-0.8c-0.5-0.4-0.9-0.9-1.2-1.5c-0.3-0.6-0.5-1.3-0.5-2.1c0-0.8,0.2-1.5,0.5-2.2s0.8-1.2,1.3-1.6
        c0.6-0.4,1.2-0.8,2-1c0.8-0.2,1.7-0.3,2.6-0.3c0.3,0,0.6,0,1,0c0.4,0,0.7,0,1,0c0.4,0,0.8,0,1.2,0.1v-0.3c0-0.7-0.3-1.3-0.9-1.7
        c-0.6-0.4-1.3-0.6-2.3-0.6c-1,0-1.9,0.1-2.5,0.4c-0.6,0.3-1.2,0.5-1.7,0.9l-1.7-2.4c0.3-0.2,0.6-0.4,1-0.6c0.4-0.2,0.8-0.4,1.3-0.6
        c0.5-0.2,1.1-0.3,1.7-0.4c0.7-0.1,1.4-0.2,2.3-0.2c0.9,0,1.8,0.1,2.6,0.4c0.8,0.3,1.4,0.6,2,1.1c0.5,0.5,1,1,1.3,1.7
        c0.3,0.6,0.4,1.3,0.4,2.1v9.6h-3.4L117.4,30.8z M117.4,25.6c-0.4,0-0.7,0-1.1-0.1c-0.3,0-0.6,0-0.9,0c-0.3,0-0.6,0-0.8,0
        c-1.2,0-2,0.2-2.5,0.7c-0.5,0.5-0.7,1-0.7,1.6c0,0.6,0.2,1.1,0.7,1.4c0.4,0.3,1.1,0.5,2,0.5c0.4,0,0.9-0.1,1.3-0.2
        c0.4-0.1,0.8-0.3,1.1-0.6c0.3-0.2,0.6-0.5,0.8-0.9c0.2-0.3,0.3-0.7,0.3-1V25.6z"></path>
      <path fill="#223843" d="M123.2,17.8h3.7v14.3h-3.7V17.8z"></path>
      <path fill="#223843" d="M129.1,17.8h3.5l0.1,1.6c0.2-0.2,0.4-0.4,0.7-0.6c0.3-0.2,0.6-0.4,0.9-0.6c0.4-0.2,0.8-0.4,1.2-0.5 c0.5-0.1,1-0.2,1.6-0.2c1.8,0,3.2,0.5,4.2,1.6c1,1.1,1.4,2.5,1.4,4.3v8.7h-3.7v-8.7c0-0.9-0.3-1.6-0.8-2.1c-0.5-0.5-1.2-0.7-2-0.7 c-0.5,0-1,0.1-1.4,0.3c-0.4,0.2-0.8,0.5-1.1,0.8c-0.3,0.3-0.6,0.7-0.7,1.2c-0.2,0.5-0.3,1-0.3,1.5v7.8h-3.7V17.8z"></path>
      <path fill="#223843" d="M144.9,32.1c0.5-1.4,1-3,1.7-4.7c0.7-1.7,1.3-3.3,2.1-4.9c0.7-1.6,1.4-3,2.1-4.3c0.7-1.3,1.2-2.3,1.7-3 h-9.5v-3.6h13.5v3.4c-0.3,0.5-0.6,1.1-1,1.8c-0.4,0.8-0.8,1.7-1.3,2.6c-0.5,1-0.9,2-1.4,3.1c-0.5,1.1-0.9,2.2-1.4,3.3 c-0.4,1.1-0.8,2.2-1.2,3.2c-0.4,1-0.7,2-0.9,2.8H144.9z"></path>
      <path fill="#223843" d="M123.4,14.8c-0.4-0.4-0.7-1-0.7-1.6c0-0.6,0.2-1.2,0.7-1.6c0.4-0.4,1-0.7,1.6-0.7c0.6,0,1.2,0.2,1.6,0.7 c0.4,0.4,0.7,1,0.7,1.6c0,0.6-0.2,1.2-0.7,1.6c-0.4,0.4-1,0.7-1.6,0.7C124.4,15.5,123.8,15.3,123.4,14.8z"></path>
    </g>
    <line class="d7-line" id="line-5" fill="none" stroke="#223843" stroke-width="2.358" stroke-miterlimit="10" x1="16.2" y1="4.2" x2="27.2" y2="18.2" style=""></line>
    <line class="d7-line" id="line-4" fill="none" stroke="#223843" stroke-width="2.358" stroke-miterlimit="10" x1="36.1" y1="13.9" x2="11.2" y2="26.1" style=""></line>
    <path class="d7-line" id="line-3" fill="none" stroke="#223843" stroke-width="2.358" stroke-miterlimit="10" d="M11.2,26.1c0.1,0.3,0.3,0.6,0.5,0.8l9.7,12.5 c0.2,0.3,0.6,0.5,0.9,0.5c0.4,0,0.7-0.2,0.9-0.5L33,26.9c0.3-0.4,0.7-1.2,0.8-1.7l2.3-10.3c0.1-0.3,0.1-0.7,0-1.1" style=""></path>
    <path class="d7-line" id="line-2" fill="none" stroke="#223843" stroke-width="2.358" stroke-miterlimit="10" d="M36.1,13.9c-0.1-0.3-0.2-0.6-0.4-0.9l-6.4-8.2 c-0.4-0.5-1.1-0.9-1.8-0.9H17.2c-0.3,0-0.7,0.1-1,0.3" style=""></path>
    <path class="d7-line" id="line-1" fill="none" stroke="#223843" stroke-width="2.358" stroke-miterlimit="10" d="M16.2,4.2c-0.3,0.2-0.6,0.4-0.8,0.6L9,13 c-0.4,0.5-0.6,1.3-0.4,1.9l2.3,10.3c0.1,0.3,0.2,0.6,0.3,0.9" style=""></path>
  <desc>Created with Snap</desc><defs></defs></svg>