<svg width="180px" height="26px" viewBox="33 0 210 41" class="navbar__logo" xmlns="http://www.w3.org/2000/svg" fill="#223843">
  <title>Engine Digital</title>
    <g id="logo" stroke="none" stroke-width="1" fill-rule="evenodd">
      <path d="M225.6,29.9h-7.2V15.5h0v-6h0v-6h7.2v6h4.1v6h-4.1Z"></path>
      <path d="M175.5,29.9h-7.2V9.5h7.2Z"></path>
      <path d="M213.7,29.9h-7.2V9.5h7.2Z"></path>
      <path d="M266,29.9h-7.2V3.6H266Z"></path>
      <path d="M271.2,29.9a2.2,2.2,0,1,1,2.2-2.2A2.22,2.22,0,0,1,271.2,29.9Zm0-3.9a1.6,1.6,0,1,0,1.6,1.6A1.64,1.64,0,0,0,271.2,26Z"></path>
      <path d="M272.1,28.5h-.6l-.4-.7h0v.7h-.5V26.7h.7c.4,0,.6.2.6.5s-.1.5-.4.5Zm-1-.9h0c.2,0,.4,0,.4-.2s-.2-.2-.3-.2h0v.4Z"></path>
      <circle cx="171.9" cy="3.6" r="3.6"></circle>
      <circle cx="210.1" cy="3.6" r="3.6"></circle>
      <path d="M247.2,9.5v2a8.32,8.32,0,0,0-6.3-2.7c-6,0-10.2,5-10.2,10.8S235,30.5,241,30.5a7.28,7.28,0,0,0,6.2-2.9h.1v2.3h7.2V9.5Zm-4.6,14.9a4.6,4.6,0,1,1,4.6-4.6A4.59,4.59,0,0,1,242.6,24.4Z"></path>
      <path d="M156.7,3.6v8a8.32,8.32,0,0,0-6.3-2.7c-6,0-10.2,5-10.2,10.8s4.2,10.9,10.3,10.9a7.28,7.28,0,0,0,6.2-2.9h.1V30H164V3.6Zm-4.4,20.8a4.6,4.6,0,1,1,4.6-4.6A4.53,4.53,0,0,1,152.3,24.4Z"></path>
      <path d="M195,9.5v2.1h-.1a7,7,0,0,0-6-2.8c-6.2,0-10.4,5.1-10.4,11s4.1,10.4,10.1,10.4a8.49,8.49,0,0,0,6.5-2.8v1c0,3.3-.8,5.8-4.6,5.8a5.37,5.37,0,0,1-2.1-.5,2.17,2.17,0,0,1-1.3-1.5H179c.6,5.4,6.9,7.8,11.6,7.8,7.5,0,11.8-3.5,11.8-12.2V9.5Zm-4.6,14.9a4.6,4.6,0,1,1,4.6-4.6A4.65,4.65,0,0,1,190.4,24.4Z"></path>
      <path d="M22.4,20.9H7.2c0,2.9,1.5,4.5,4.5,4.5a3.58,3.58,0,0,0,3.5-1.9h7c-1.2,4.8-5.7,7-10.4,7C5,30.5,0,26.7,0,19.7,0,12.9,4.6,8.8,11.3,8.8c7.1,0,11.2,4.4,11.2,11.3v.8Zm-6.7-4.1a4.1,4.1,0,0,0-4.1-3.2,4.05,4.05,0,0,0-4.3,3.2Z"></path>
      <path d="M32.7,12.2h0a7.16,7.16,0,0,1,6.6-3.3c5.5,0,7.7,3.5,7.7,8.5V30H39.8V20.1c0-1.9.3-5.4-3.3-5.4-2.9,0-3.8,2.2-3.8,4.7V30H25.5V9.5h7.2Z"></path>
      <path d="M85.3,29.9H78.1V9.5h7.2Z"></path>
      <path d="M96.9,12.2h0a7.16,7.16,0,0,1,6.6-3.3c5.5,0,7.7,3.5,7.7,8.5V30H104V20.1c0-1.9.3-5.4-3.3-5.4-2.9,0-3.8,2.2-3.8,4.7V30H89.6V9.5h7.2v2.7Z"></path>
      <path d="M136.6,20.9H121.4c0,2.9,1.6,4.5,4.5,4.5a3.67,3.67,0,0,0,3.5-1.9h7c-1.2,4.8-5.7,7-10.4,7-6.8,0-11.8-3.8-11.8-10.8,0-6.8,4.6-10.9,11.3-10.9,7.1,0,11.2,4.4,11.2,11.3v.8Zm-6.8-4.1a4.1,4.1,0,0,0-4.1-3.2,4.05,4.05,0,0,0-4.3,3.2Z"></path>
      <circle cx="81.7" cy="3.6" r="3.6"></circle>
      <path d="M66.6,9.5v2.1h-.1a7,7,0,0,0-6-2.8c-6.2,0-10.5,5.1-10.5,11s4.1,10.4,10.1,10.4a8.49,8.49,0,0,0,6.5-2.8v1c0,3.3-.8,5.8-4.6,5.8a5.37,5.37,0,0,1-2.1-.5,2.17,2.17,0,0,1-1.3-1.5H50.5c.6,5.4,6.9,7.8,11.6,7.8,7.5,0,11.8-3.5,11.8-12.2V9.5ZM61.9,24.4a4.6,4.6,0,1,1,4.6-4.6A4.53,4.53,0,0,1,61.9,24.4Z"></path>
  </g>
</svg>