<svg id="Logo" xmlns="http://www.w3.org/2000/svg" viewBox="0 0 413.86 72"><defs><style>.cls-1{fill:#212322;}</style></defs><polygon class="cls-1" points="36 72 18 72 54 18 72 18 36 72"/><polygon class="cls-1" points="18 54 0 54 36 0 54 0 18 54"/><path class="cls-1" d="M95.56,39.86V53.8H90.11V18.2h23.67v5H95.56V35.11h16.26v4.75Z"/><path class="cls-1" d="M124.78,48.87h16.61V53.8H119.32V18.2h5.46Z"/><path class="cls-1" d="M144,35.94c0-11.09,6.47-18.45,17.62-18.45s17.62,7.36,17.62,18.45S173,54.51,161.62,54.51,144,47,144,35.94Zm29.84-.06c0-8.07-3.91-13.58-12.22-13.58S149.4,27.81,149.4,35.88c0,8.25,3.8,13.88,12.22,13.88S173.84,44.19,173.84,35.88Z"/><path class="cls-1" d="M184.7,35.94c0-11.09,6.47-18.45,17.62-18.45s17.62,7.36,17.62,18.45-6.29,18.57-17.62,18.57S184.7,47,184.7,35.94Zm29.84-.06c0-8.07-3.91-13.58-12.22-13.58S190.1,27.81,190.1,35.88c0,8.25,3.8,13.88,12.22,13.88S214.54,44.19,214.54,35.88Z"/><path class="cls-1" d="M238.43,39.68h-7.59V53.8h-5.46V18.2h14.36c8.78,0,12.7,3.8,12.7,10.44,0,5.64-3,9.32-8.55,10.56l10.62,13.95v.65h-6.29Zm-7.59-16.85V35h8.37c5,0,7.83-2,7.83-6.23,0-4-2-5.93-7.77-5.93Z"/><path class="cls-1" d="M256.43,42.7l5.16-1.12c1,5.57,4.33,8.42,10.44,8.42,5.63,0,8.13-2.19,8.13-5.52s-2.26-5.1-9.38-6.34c-9.73-1.72-12.87-5.34-12.87-10.74,0-6,4.39-9.91,13.11-9.91s12.34,4.21,13.7,10.56l-5.39,1.07c-1.07-4.75-3-7.18-8.55-7.18-5.1,0-7.47,2-7.47,5.16,0,3,1.66,5,9.43,6.41,10.32,2,12.87,5.63,12.87,10.62,0,6.29-4,10.38-13.76,10.38C261.65,54.45,257.38,49.59,256.43,42.7Z"/><path class="cls-1" d="M296.53,41.1V53.8h-5.46V18.2H305c8.36,0,12.57,3.86,12.57,11.45,0,6.65-4.39,11.45-12.46,11.45Zm0-18.21V36.53h8c5.4,0,7.65-2.13,7.65-6.82s-1.95-6.82-7.71-6.82Z"/><path class="cls-1" d="M340.35,43.83H324.27l-3.62,10H315l13.82-35.6H336l13.76,35.6H344Zm-14.59-4.15h13.05l-1.6-4.39c-1.49-4-3-8.54-4.16-12.28h-1.48c-1.19,3.79-2.73,8.3-4.21,12.28Z"/><path class="cls-1" d="M350.5,35.94c0-11.33,6.41-18.45,17.09-18.45,9.08,0,14.59,5,15.9,13.41l-5.16,1c-1.25-6.17-4.63-9.61-10.8-9.61-7.95,0-11.57,5.57-11.57,13.64,0,8.48,3.62,13.82,11.45,13.82,6.65,0,9.85-3.56,11.1-9.9l5.16,1c-1.25,8.48-6.83,13.7-16.26,13.7C356.56,54.51,350.5,47.27,350.5,35.94Z"/><path class="cls-1" d="M389.12,18.2h24.74V23H394.58V33.33h17.33v4.75H394.58V49H413.8V53.8H389.12Z"/></svg>
