<?xml version="1.0" encoding="UTF-8"?>
<svg width="95px" height="24px" viewBox="-5 -5 100 30" version="1.1" xmlns="http://www.w3.org/2000/svg" xmlns:xlink="http://www.w3.org/1999/xlink">
    <title>Monday_Logo</title>
    <g id="Page-1" stroke="none" stroke-width="1" fill="none" fill-rule="evenodd">
        <g id="Monday_Logo" fill="#212322" fill-rule="nonzero">
            <g id="Monday-logo-2020-charcoal-RGB">
                <polygon id="Path" points="4.373975 0.056119403 7.748575 0.056119403 11.687175 8.39761194 19.53735 0.056119403 22.91195 0.056119403 19.0509 18.5062687 15.343775 18.5062687 17.7725 6.89074627 10.66375 14.4 6.77685 6.18865672 4.22005 18.5062687 0.512925 18.5062687"></polygon>
                <path d="M31.666875,11.7504478 C31.666875,9.80179104 30.567075,8.55402985 28.7517,8.55402985 C26.757725,8.55402985 25.3254,10.2173134 25.3254,12.2961194 C25.3254,14.2185075 26.39935,15.4925373 28.214725,15.4925373 C30.2087,15.4925373 31.666875,13.8292537 31.666875,11.7504478 M21.771025,12.6077612 C21.771025,8.47641791 24.6862,5.22865672 29.058375,5.22865672 C33.123875,5.22865672 35.1954,8.24238806 35.1954,11.438806 C35.1954,15.5701493 32.306075,18.8191045 27.932725,18.8191045 C23.867225,18.8179104 21.771025,15.8029851 21.771025,12.6077612" id="Shape"></path>
                <path d="M37.906125,5.51402985 L41.4088,5.51402985 L41.127975,6.86447761 C41.971625,5.92955224 43.35225,5.25373134 44.91265,5.25373134 C48.083975,5.25373134 49.4646,8.24238806 48.8254,11.2561194 L47.3167,18.5062687 L43.814025,18.5062687 L45.271025,11.5164179 C45.679925,9.59402985 44.9385,8.45014925 43.4298,8.45014925 C41.793025,8.45014925 40.566325,9.56776119 40.054025,12.0358209 L38.69925,18.5062687 L35.196575,18.5062687 L37.906125,5.51402985 Z" id="Path"></path>
                <path d="M59.8375,11.5677612 C59.8375,9.69671642 58.839925,8.52776119 57.07625,8.52776119 C55.004725,8.52776119 53.41965,10.32 53.41965,12.6591045 C53.41965,14.5301493 54.417225,15.6991051 56.1809,15.6991051 C58.25125,15.7002985 59.8375,13.9331343 59.8375,11.5677612 M49.9158,13.0232836 C49.9158,8.55402985 52.779275,5.30626866 56.640325,5.30626866 C58.788225,5.30626866 60.2464,6.52776119 60.68115,7.38507463 L62.181625,0.0585074627 L65.68195,0.0585074627 L61.857325,18.5074627 L58.3288,18.5074627 L58.5591,17.4161194 C57.94575,18.0656716 56.743725,18.7928358 54.92835,18.7928358 C51.961475,18.7916418 49.9158,16.2973134 49.9158,13.0232836" id="Shape"></path>
                <path d="M74.453325,11.4901493 C74.453325,9.61910448 73.45575,8.47522388 71.692075,8.47522388 C69.62055,8.47522388 68.035475,10.2423881 68.035475,12.6065672 C68.035475,14.4776119 69.03305,15.6465678 70.796725,15.6465678 C72.867075,15.6477612 74.453325,13.8543284 74.453325,11.4901493 M64.531625,12.9456716 C64.531625,8.50268657 67.3951,5.22865672 71.25615,5.22865672 C73.40405,5.22865672 74.862225,6.47522388 75.2958,7.30746269 L75.654175,5.51522388 L79.15685,5.51522388 L76.446125,18.5074627 L72.94345,18.5074627 L73.17375,17.3635821 C72.5604,18.0131343 71.358375,18.7152239 69.543,18.7152239 C66.5773,18.7140299 64.531625,16.2197015 64.531625,12.9456716" id="Shape"></path>
                <polygon id="Path" points="82.727675 17.7265672 79.940575 5.51402985 83.418575 5.51402985 85.157575 14.0620896 90.475625 5.51402985 94.46475 5.51402985 82.574925 23.9367164 78.688025 23.9367164"></polygon>
            </g>
        </g>
    </g>
</svg>
