<svg xmlns="http://www.w3.org/2000/svg" xmlns:xlink="http://www.w3.org/1999/xlink" viewBox="0 0 115.71 29.01"><defs><style>.a,.b{fill:#223843;}.b{clip-rule:evenodd;}.c{clip-path:url(#a);}.d{clip-path:url(#b);}.e{isolation:isolate;}.f{clip-path:url(#c);}.g{clip-path:url(#d);}.h{fill:#223843;}.i{clip-path:url(#f);}.j{clip-path:url(#h);}.k{clip-path:url(#i);}.l{clip-path:url(#k);}.m{clip-path:url(#m);}.n{clip-path:url(#n);}.o{clip-path:url(#p);}.p{clip-path:url(#r);}.q{clip-path:url(#t);}.r{clip-path:url(#v);}.s{clip-path:url(#x);}.t{clip-path:url(#y);}.u{clip-path:url(#aa);}.v{clip-path:url(#ac);}.w{clip-path:url(#ae);}.x{clip-path:url(#ag);}.y{clip-path:url(#ah);}.z{clip-path:url(#aj);}</style><clipPath id="a" transform="translate(-1170 -4494.29)"><rect class="a" x="1175" y="4499.45" width="9.04" height="18.68"/></clipPath><clipPath id="b" transform="translate(-1170 -4494.29)"><rect class="a" width="1440" height="4902"/></clipPath><clipPath id="c" transform="translate(-1170 -4494.29)"><rect class="a" x="1175" y="4499" width="10" height="20"/></clipPath><clipPath id="d" transform="translate(-1170 -4494.29)"><path class="b" d="M1178.78,4518.14H1175v-18.68h5.53c2.35,0,3.51,1.15,3.51,3.47v5.26c0,2.32-1.16,3.47-3.51,3.47h-1.75v6.49Zm0.81-15.48h-0.81v5.79h0.81a0.59,0.59,0,0,0,.67-0.67v-4.46A0.59,0.59,0,0,0,1179.59,4502.66Z"/></clipPath><clipPath id="f" transform="translate(-1170 -4494.29)"><rect class="a" x="1185.04" y="4499.29" width="9.44" height="19.01"/></clipPath><clipPath id="h" transform="translate(-1170 -4494.29)"><rect class="a" x="1185" y="4499" width="10" height="20"/></clipPath><clipPath id="i" transform="translate(-1170 -4494.29)"><path class="b" d="M1191,4518.3h-2.43c-2.35,0-3.51-1.15-3.51-3.47v-12.07c0-2.32,1.16-3.47,3.51-3.47H1191c2.35,0,3.51,1.15,3.51,3.47v12.07c0,2.32-1.16,3.47-3.51,3.47m-0.94-15.8h-0.54a0.59,0.59,0,0,0-.67.67v11.26a0.59,0.59,0,0,0,.67.67H1190a0.59,0.59,0,0,0,.67-0.67v-11.26a0.58,0.58,0,0,0-.67-0.67"/></clipPath><clipPath id="k" transform="translate(-1170 -4494.29)"><rect class="a" x="1195.75" y="4499.45" width="9.31" height="18.84"/></clipPath><clipPath id="m" transform="translate(-1170 -4494.29)"><rect class="a" x="1195" y="4499" width="11" height="20"/></clipPath><clipPath id="n" transform="translate(-1170 -4494.29)"><path class="b" d="M1205.06,4514.83c0,2.32-1.16,3.47-3.51,3.47h-2.29c-2.35,0-3.51-1.15-3.51-3.47v-15.38h3.78v15a0.59,0.59,0,0,0,.68.67h0.4a0.59,0.59,0,0,0,.68-0.67v-15h3.78v15.38Z"/></clipPath><clipPath id="p" transform="translate(-1170 -4494.29)"><polygon class="b" points="1212.34 4499.45 1215.61 4499.45 1215.61 4518.14 1211.94 4518.14 1209.56 4507.99 1209.64 4518.14 1206.38 4518.14 1206.38 4499.45 1210.24 4499.45 1212.42 4508.74 1212.34 4499.45"/></clipPath><clipPath id="r" transform="translate(-1170 -4494.29)"><path class="b" d="M1217,4499.45h5.31c2.72,0,4,1.31,4,4v10.68c0,2.7-1.32,4-4,4H1217v-18.68Zm3.78,15.48h0.76a0.9,0.9,0,0,0,1.05-1v-10.2a0.9,0.9,0,0,0-1.05-1h-0.76v12.28Z"/></clipPath><clipPath id="t" transform="translate(-1170 -4494.29)"><path class="b" d="M1231.47,4512.71a1.44,1.44,0,0,1-1.49.84h-0.72a1.46,1.46,0,0,1-1.65-1.63V4510a1.88,1.88,0,0,1,.64-1.58l0.53-.46-0.31-.56a2.45,2.45,0,0,1-.33-1.38v-0.29a1.54,1.54,0,0,1,1.76-1.74h0.81a1.54,1.54,0,0,1,1.76,1.74V4507h-1.75V4506a0.29,0.29,0,0,0-.34-0.34h-0.14a0.3,0.3,0,0,0-.34.34v0.19a1.69,1.69,0,0,0,.27.89l1.17,2.14,0.41-1.26h1.85l-1.12,3.09,1.35,2.46h-1.95Zm-1.14-1,0.2-.51-0.91-1.63a0.7,0.7,0,0,0-.23.6v1.54a0.26,0.26,0,0,0,.3.29h0.24A0.38,0.38,0,0,0,1230.33,4511.71Z"/></clipPath><clipPath id="v" transform="translate(-1170 -4494.29)"><rect class="a" x="1234.73" y="4499.29" width="9.44" height="19.01"/></clipPath><clipPath id="x" transform="translate(-1170 -4494.29)"><rect class="a" x="1234" y="4499" width="11" height="20"/></clipPath><clipPath id="y" transform="translate(-1170 -4494.29)"><path class="b" d="M1239.29,4510.72v-3.12h4.88v7.24c0,2.32-1.16,3.47-3.51,3.47h-2.43c-2.35,0-3.51-1.15-3.51-3.47v-12.07c0-2.32,1.16-3.47,3.51-3.47h2.38c2.35,0,3.51,1.15,3.51,3.47v3.58h-3.72v-3.18a0.58,0.58,0,0,0-.67-0.67h-0.54a0.58,0.58,0,0,0-.67.67v11.26a0.58,0.58,0,0,0,.67.67h0.62a0.59,0.59,0,0,0,.68-0.67v-3.71h-1.19Z"/></clipPath><clipPath id="aa" transform="translate(-1170 -4494.29)"><path class="b" d="M1254.64,4511.7v6.43h-3.78v-6.41a0.59,0.59,0,0,0-.67-0.67h-0.94v7.07h-3.78v-18.68h5.64c2.35,0,3.51,1.15,3.51,3.47v3.61c0,1.6-.59,2.4-1.62,2.77a2.12,2.12,0,0,1,1.65,2.4m-4.48-9h-0.92v5.18h0.92a0.59,0.59,0,0,0,.67-0.67v-3.84a0.59,0.59,0,0,0-.67-0.67"/></clipPath><clipPath id="ac" transform="translate(-1170 -4494.29)"><path class="b" d="M1265.49,4518.14h-3.75l-0.3-2.72h-2.37l-0.27,2.72h-3.43l2.48-18.68H1263Zm-6.07-6h1.7l-0.86-8.17Z"/></clipPath><clipPath id="ae" transform="translate(-1170 -4494.29)"><rect class="a" x="1175" y="4499.29" width="105.71" height="19.01"/></clipPath><clipPath id="ag" transform="translate(-1170 -4494.29)"><rect class="a" x="1266" y="4499" width="15" height="20"/></clipPath><clipPath id="ah" transform="translate(-1170 -4494.29)"><rect class="a" x="1266.33" y="4499.45" width="3.78" height="18.68"/></clipPath><clipPath id="aj" transform="translate(-1170 -4494.29)"><polygon class="b" points="1277.44 4499.45 1280.71 4499.45 1280.71 4518.14 1277.04 4518.14 1274.67 4507.99 1274.75 4518.14 1271.48 4518.14 1271.48 4499.45 1275.34 4499.45 1277.52 4508.74 1277.44 4499.45"/></clipPath></defs><title>pandg-logo</title><g class="c"><g class="d"><g class="e"><g class="f"><g class="g"><g class="f"><rect class="h" y="0.16" width="19.04" height="28.68"/></g></g></g></g></g></g><g class="i"><g class="d"><g class="e"><g class="j"><g class="k"><g class="j"><rect class="h" x="10.04" width="19.44" height="29.01"/></g></g></g></g></g></g><g class="l"><g class="d"><g class="e"><g class="m"><g class="n"><g class="m"><rect class="h" x="20.75" y="0.16" width="19.31" height="28.85"/></g></g></g></g></g></g><g class="o"><g class="d"><rect class="h" x="31.38" y="0.16" width="19.23" height="28.68"/></g></g><g class="p"><g class="d"><rect class="h" x="41.96" y="0.16" width="19.36" height="28.68"/></g></g><g class="q"><g class="d"><rect class="h" x="52.61" y="4.74" width="16.24" height="19.52"/></g></g><g class="r"><g class="d"><g class="e"><g class="s"><g class="t"><g class="s"><rect class="h" x="59.73" width="19.44" height="29.01"/></g></g></g></g></g></g><g class="u"><g class="d"><rect class="h" x="70.47" y="0.16" width="19.18" height="28.68"/></g></g><g class="v"><g class="d"><rect class="h" x="80.37" y="0.16" width="20.12" height="28.68"/></g></g><g class="w"><g class="d"><g class="e"><g class="x"><g class="y"><g class="x"><rect class="h" x="91.33" y="0.16" width="13.78" height="28.68"/></g></g><g class="z"><g class="x"><rect class="h" x="96.48" y="0.16" width="19.23" height="28.68"/></g></g></g></g></g></g></svg>
