<svg version="1.1" xmlns="http://www.w3.org/2000/svg" viewBox="0 0 775 272" id="wallop-logo">
    <circle data-spirit-id="logomark" fill="none" stroke-width="14" stroke-miterlimit="10" cx="132.863" cy="136" r="124.5" style="opacity: 1; transform-origin: 0px 0px; stroke-dasharray: none; stroke-width: 14px;" transform="matrix(1,0,0,1,0,0)"></circle>
    <g data-spirit-id="wordmark">
        <path fill="#223843" data-spirit-id="W" d="M207.734,97.842c-1.097-5.89-4.068-10.414-9.604-13.042c-2.349-1.117-4.818-1.845-7.297-2.314
            c-0.802,1.225-1.516,2.43-2.342,3.549c-3.481,4.725-8.175,7.759-13.661,9.664c-6.105,2.119-12.383,3.441-18.805,4.113
            c-1.221,0.128-2.449,0.208-3.666,0.31c-0.062-0.22-0.111-0.353-0.138-0.49c-0.539-2.697-1.085-5.395-1.601-8.096
            c-0.175-0.91-0.952-0.783-1.54-0.985c-0.542-0.186-0.581,0.328-0.732,0.608c-13.086,24.541-26.165,49.084-39.245,73.63
            c-0.106,0.2-0.217,0.396-0.41,0.749c-4.435-24.429-8.835-48.673-13.236-72.921c-0.219,0.034-0.341,0.045-0.46,0.072
            c-3.835,0.823-7.648,1.769-11.509,2.446c-6.912,1.211-13.843,2.328-20.785,3.356c-4.481,0.663-8.993,1.141-13.499,1.625
            c-4.507,0.483-9.025,0.872-13.537,1.303v0.243c0.046,0.258,0.1,0.515,0.138,0.773c0.059,0.404,0.235,0.562,0.688,0.534
            c6.769-0.429,13.539-0.858,20.311-1.238c3.079-0.173,6.146-0.03,9.192,0.535c3.176,0.588,5.408,2.282,6.479,5.357
            c0.551,1.581,1.114,3.178,1.443,4.814c0.862,4.302,1.603,8.627,2.385,12.946c1.363,7.522,2.721,15.047,4.08,22.57
            c1.319,7.306,2.636,14.61,3.953,21.915c1.359,7.524,2.716,15.048,4.072,22.572c0.583,3.225,1.161,6.45,1.747,9.673
            c0.039,0.211,0.101,0.556,0.217,0.587c0.502,0.133,1.031,0.231,1.545,0.212c0.175-0.006,0.374-0.373,0.5-0.609
            c13.786-25.772,27.565-51.547,41.346-77.323c0.1-0.187,0.22-0.363,0.384-0.634c0.081,0.342,0.14,0.569,0.188,0.8
            c1.845,8.601,3.69,17.201,5.535,25.803c2.651,12.356,5.303,24.715,7.953,37.072c1.025,4.784,2.046,9.57,3.073,14.354
            c0.042,0.193,0.073,0.428,0.198,0.557c0.355,0.372,1.754,0.284,2.111-0.113c2.758-3.048,5.561-6.057,8.259-9.157
            c7.062-8.113,15.167-18.343,21.284-27.205c6.849-9.928,11.704-18.343,16.668-29.358c4.2-9.319,7.644-18.856,8.5-29.146
            C208.197,104.579,208.358,101.199,207.734,97.842z M191.111,145.562c-2.502,5.755-5.696,11.197-9.32,16.314
            c-3.824,5.399-8.131,10.449-12.74,15.191l-0.283,0.292c-5.407-25.376-10.79-50.628-16.176-75.9
            c6.173-0.172,12.26-0.494,18.356-0.088c4.328,0.287,8.625,0.747,12.83,1.875c7.126,1.91,12.561,5.156,13.543,12.979
            C198.574,126.194,195.038,136.53,191.111,145.562z">
        </path>
        <g data-spirit-id="hidden-words" transform="matrix(1,0,0,1,0,0)" fill="#223843">
            <path data-spirit-id="A" d="M324.11,196.357c-10.165,0-14.095-7.163-14.095-20.563c0-14.788,0.462-29.806,0.462-48.292
                c0-27.958-18.485-39.51-50.832-39.51c-25.418,0-42.746,12.94-42.746,28.652c0,11.09,8.086,17.791,18.484,17.791
                c8.087,0,14.556-3.928,16.636-11.322c-1.156,0.462-2.311,0.693-3.466,0.693c-6.701,0-10.629-5.084-10.629-12.938
                c0-10.167,6.008-18.485,21.258-18.485c17.098,0,24.029,13.402,24.029,28.651v16.173l-17.56,3.236
                c-27.727,5.083-53.605,10.628-53.605,35.813c0,19.41,15.02,28.65,33.272,28.65c19.411,0,35.352-13.632,38.125-29.574
                c0,2.079,0.462,8.548,0.462,9.474c1.387,12.245,9.243,20.333,23.568,20.333c9.936,0,18.485-4.159,23.105-9.936v-0.462
                C328.731,195.665,326.421,196.357,324.11,196.357z M282.751,162.16c-0.231,19.178-12.246,30.729-25.646,30.729
                c-10.168,0-17.561-6.006-17.561-20.1c0-16.176,9.474-24.492,30.038-28.652l13.631-2.541L282.751,162.16z"></path>
            <path data-spirit-id="L1" d="M370.172,29.995h-40.896v0.462c10.86,4.852,14.094,11.092,14.094,25.186v122.459c0,15.25-1.618,19.641-12.477,24.725v0.463
                h51.755v-0.463c-10.859-5.084-12.477-9.475-12.477-24.725V29.995z" style="transform-origin: 0px 0px;" transform="matrix(1,0,0,1,0,0)"></path>
            <path data-spirit-id="L2" d="M428.396,29.995h-40.897v0.462c10.86,4.852,14.094,11.092,14.094,25.186v122.459c0,15.25-1.616,19.641-12.477,24.725v0.463
                h51.757v-0.463c-10.859-5.084-12.477-9.475-12.477-24.725V29.995z" style="transform-origin: 0px 0px;" transform="matrix(1,0,0,1,0,0)"></path>
            <path data-spirit-id="O" d="M500.789,87.991c-33.503,0-58.689,24.493-58.689,58.919c0,34.428,25.186,58.689,58.689,58.689
                c33.732,0,58.688-24.262,58.688-58.689C559.477,112.484,534.522,87.991,500.789,87.991z M500.789,201.208
                c-19.178,0-29.346-22.41-29.346-54.298c0-32.117,10.167-54.529,29.346-54.529c19.177,0,29.343,22.412,29.343,54.529
                C530.133,178.798,519.966,201.208,500.789,201.208z" style="transform-origin: 0px 0px;" transform="matrix(1,0,0,1,0,0)"></path>
            <path data-spirit-id="P" d="M638.037,87.991c-21.488,0-36.276,15.019-40.897,32.811v-30.5h-40.436v0.462c10.859,5.085,13.632,11.092,13.632,24.954
                v113.911c0,15.251-1.616,19.983-12.477,25.066v0.463h51.758v-0.463c-10.86-5.083-12.478-9.815-12.478-25.066v-55.222
                c4.621,17.097,18.945,31.192,39.972,31.192c28.42,0,51.526-23.568,51.526-59.845C688.637,109.711,665.995,87.991,638.037,87.991z
                M628.332,195.202c-15.249,0-31.192-14.557-31.192-38.356v-19.641c0-23.104,15.711-37.199,30.961-37.199
                c19.641,0,31.654,17.097,31.654,45.749C659.755,176.486,647.972,195.202,628.332,195.202z" style="transform-origin: 0px 0px;" transform="matrix(1,0,0,1,0,0)">
            </path>
        </g>
    </g>
 </svg>
